Coordinates
version=1
nRows=10
nColumns=63
inDegrees=yes

Units are S.I. units (second, meters, Newtons, ...)
If the header above contains a line with 'inDegrees', this indicates whether rotational values are in degrees (yes) or radians (no).

endheader
time	pelvis_tilt	pelvis_list	pelvis_rotation	pelvis_tx	pelvis_ty	pelvis_tz	hip_flexion_r	hip_adduction_r	hip_rotation_r	knee_angle_r	knee_angle_r_beta	ankle_angle_r	subtalar_angle_r	mtp_angle_r	hip_flexion_l	hip_adduction_l	hip_rotation_l	knee_angle_l	knee_angle_l_beta	ankle_angle_l	subtalar_angle_l	mtp_angle_l	L5_S1_Flex_Ext	L5_S1_Lat_Bending	L5_S1_axial_rotation	L4_L5_Flex_Ext	L4_L5_Lat_Bending	L4_L5_axial_rotation	L3_L4_Flex_Ext	L3_L4_Lat_Bending	L3_L4_axial_rotation	L2_L3_Flex_Ext	L2_L3_Lat_Bending	L2_L3_axial_rotation	L1_L2_Flex_Ext	L1_L2_Lat_Bending	L1_L2_axial_rotation	L1_T12_Flex_Ext	L1_T12_Lat_Bending	L1_T12_axial_rotation	Abs_r3	Abs_r2	Abs_r1	Abs_t1	Abs_t2	neck_flexion	neck_bending	neck_rotation	arm_flex_r	arm_add_r	arm_rot_r	elbow_flex_r	pro_sup_r	wrist_flex_r	wrist_dev_r	arm_flex_l	arm_add_l	arm_rot_l	elbow_flex_l	pro_sup_l	wrist_flex_l	wrist_dev_l
      2.93333333	     -0.11467094	      2.22305609	    121.96407051	      0.19540445	      0.72447402	      0.93854629	     -2.34139363	     -1.36742455	    -19.98599051	     12.61261513	      0.22013166	     30.81594222	     -0.98864864	      0.00000000	     -1.99048692	      1.48252235	     26.54574072	      4.00046168	      0.06982123	     27.26351077	     -6.19478336	      0.00000000	     -0.20203863	      0.20766445	      1.26943654	     -0.37520594	      0.27619372	      1.34877633	     -0.33192926	      0.50491534	      1.34877633	     -0.23090995	      0.50491534	      1.11075697	     -0.18761307	      0.42346934	      1.03141719	     -0.11544487	      0.32167223	      0.95207741	     -1.44314171	      2.34914177	      7.06022521	      0.00000000	      0.00000000	     13.72523568	      1.08545978	     -7.19560513	      0.08036239	    -16.30351045	     80.16903720	     16.83169717	      4.47199686	      0.51373524	      4.18925991	      2.97185179	    -11.23122177	     45.42895127	     33.04277111	     87.67696522	     -2.41282091	     -0.61645670
      2.95000000	     -0.16107733	      2.23298850	    122.15739295	      0.19518632	      0.72460255	      0.93859147	     -2.45306453	     -1.38599699	    -20.52317729	     12.60917772	      0.22007167	     30.86410468	     -0.57359296	      0.00000000	     -2.02882962	      1.50829645	     27.21572118	      3.89759859	      0.06802593	     27.19294872	     -6.66897886	      0.00000000	     -0.21247471	      0.18973775	      1.19063408	     -0.39458679	      0.25235121	      1.26504871	     -0.34907470	      0.46132837	      1.26504871	     -0.24283735	      0.46132837	      1.04180482	     -0.19730402	      0.38691322	      0.96739019	     -0.12140805	      0.29390377	      0.89297556	     -1.51768561	      2.14635138	      6.62194958	      0.00000000	      0.00000000	     13.46296971	      1.27967772	     -7.35335550	      0.30108267	    -16.42546917	     80.76804468	     17.05033223	      4.72399856	      0.51905650	      3.81892448	      3.15795418	    -11.15051628	     45.56932262	     32.44304046	     87.56209930	     -2.32489685	     -1.21744746
      2.96666667	     -0.17029588	      2.17575251	    122.20963554	      0.19520632	      0.72458487	      0.93883353	     -2.40572052	     -1.40070350	    -20.58156707	     12.68929434	      0.22146997	     30.75959031	     -0.65491334	      0.00000000	     -1.98592342	      1.55758299	     28.08332486	      3.82233745	      0.06671237	     26.98220888	     -7.57032044	      0.00000000	     -0.21866967	      0.17348613	      1.13432337	     -0.40609144	      0.23073655	      1.20521858	     -0.35925240	      0.42181417	      1.20521858	     -0.24991756	      0.42181417	      0.99253295	     -0.20305665	      0.35377291	      0.92163774	     -0.12494785	      0.26873001	      0.85074253	     -1.56193557	      1.96250976	      6.30876628	      0.00000000	      0.00000000	     13.21445216	      1.41881512	     -7.46584672	      0.50869504	    -16.56353009	     81.18050455	     17.28421397	      4.91628707	      0.70192346	      3.35533631	      3.50395396	    -11.06259968	     46.13266689	     31.76741882	     87.40455836	     -2.27348152	     -1.83178730
      2.98333333	     -0.11059664	      2.06436740	    122.33659267	      0.19513005	      0.72444781	      0.93909955	     -2.31811868	     -1.44646388	    -21.45243078	     12.75402971	      0.22259981	     30.73191233	      0.25450787	      0.00000000	     -1.80486505	      1.58476999	     28.70801262	      3.89192715	      0.06792694	     26.87602854	     -8.01305295	      0.00000000	     -0.21747211	      0.16454892	      1.06762055	     -0.40386745	      0.21885006	      1.13434684	     -0.35728493	      0.40008424	      1.13434684	     -0.24854887	      0.40008424	      0.93416798	     -0.20194460	      0.33554815	      0.86744170	     -0.12426356	      0.25488627	      0.80071541	     -1.55338152	      1.86141026	      5.93778523	      0.00000000	      0.00000000	     12.98695935	      1.37805097	     -7.68723123	      0.65857518	    -16.67565456	     81.59457405	     17.43409106	      4.82029650	      1.07348189	      2.69608276	      3.99886791	    -10.95049249	     47.23990475	     31.02756271	     87.16663950	     -2.35889757	     -2.26225387
      3.00000000	     -0.03104071	      1.92118773	    122.47165826	      0.19517394	      0.72421423	      0.93914536	     -2.20748279	     -1.43533214	    -21.90902269	     12.75707634	      0.22265299	     30.55005887	      0.54526587	      0.00000000	     -1.61975065	      1.58852890	     29.33426863	      3.94419055	      0.06883911	     26.70106035	     -8.38837804	      0.00000000	     -0.21833224	      0.16214622	      0.97213355	     -0.40546480	      0.21565447	      1.03289190	     -0.35869803	      0.39424231	      1.03289190	     -0.24953192	      0.39424231	      0.85061686	     -0.20274332	      0.33064857	      0.78985851	     -0.12475504	      0.25116449	      0.72910016	     -1.55952535	      1.83423044	      5.40671517	      0.00000000	      0.00000000	     12.97826022	      1.21792302	     -7.54345215	      0.85928383	    -16.79870995	     81.86214875	     17.56666296	      5.14933181	      1.63834437	      2.28461945	      4.44548757	    -10.81344527	     48.05309754	     30.40275815	     87.11070727	     -2.08900735	     -2.06872288
      3.01666667	      0.09060337	      1.82407139	    122.54160512	      0.19523955	      0.72394785	      0.93890770	     -2.11712911	     -1.35111816	    -22.20871300	     12.75387785	      0.22259716	     30.30395450	      0.57549373	      0.00000000	     -1.48177284	      1.51171323	     29.72712829	      3.99455853	      0.06971820	     26.63342680	     -8.48461437	      0.00000000	     -0.21790260	      0.17264892	      0.88881256	     -0.40466691	      0.22962306	      0.94436335	     -0.35799217	      0.41977858	      0.94436335	     -0.24904088	      0.41977858	      0.77771099	     -0.20234435	      0.35206568	      0.72216021	     -0.12450954	      0.26743318	      0.66660942	     -1.55645645	      1.95303912	      4.94330884	      0.00000000	      0.00000000	     12.93675609	      0.54662880	     -7.77140187	      1.04167232	    -17.03166996	     82.02391290	     17.86378131	      5.39681607	      1.95247651	      2.05585158	      5.02147357	    -10.57852183	     49.27579569	     29.63310287	     87.12892263	     -1.53663831	     -1.42750366
      3.03333333	      0.17312226	      1.81099545	    122.69369871	      0.19528928	      0.72375992	      0.93838139	     -2.24503518	     -1.25086921	    -23.02362122	     12.56463427	      0.21929424	     30.20922058	      1.28685321	      0.00000000	     -1.48132565	      1.41198486	     30.76506102	      4.01075205	      0.07000083	     26.32995376	     -9.44958139	      0.00000000	     -0.22510105	      0.18332179	      0.82005579	     -0.41803516	      0.24381798	      0.87130927	     -0.36981851	      0.44572860	      0.87130927	     -0.25726799	      0.44572860	      0.71754881	     -0.20902883	      0.37382979	      0.66629533	     -0.12862274	      0.28396545	      0.61504184	     -1.60787429	      2.07377273	      4.56090427	      0.00000000	      0.00000000	     12.96205316	     -0.57840029	     -8.86892622	      1.22088219	    -17.21397484	     82.84682011	     18.05272885	      5.45638627	      2.41934134	      1.66095634	      6.14091225	    -10.39427441	     52.83398889	     28.41619497	     86.18998848	     -1.31316755	     -1.29571355
      3.05000000	      0.26556941	      1.85488930	    122.77872699	      0.19525643	      0.72360826	      0.93769180	     -2.40137307	     -1.07077589	    -23.31613614	     12.34540866	      0.21546803	     29.91771383	      1.20343186	      0.00000000	     -1.55248169	      1.25223348	     30.98568505	      3.97944406	      0.06945440	     26.23713568	     -9.52031348	      0.00000000	     -0.22843216	      0.20689343	      0.70707787	     -0.42422137	      0.27516826	      0.75127024	     -0.37529120	      0.50304068	      0.75127024	     -0.26107512	      0.50304068	      0.61869314	     -0.21212211	      0.42189708	      0.57450077	     -0.13052614	      0.32047792	      0.53030840	     -1.63166809	      2.34041983	      3.93255500	      0.00000000	      0.00000000	     13.11070828	     -1.24876566	     -8.84243589	      1.50941046	    -17.54746353	     83.48330637	     18.50722431	      5.82048659	      2.41374913	      1.75636805	      6.73670569	     -9.98433989	     54.30607461	     27.37105846	     86.40345995	     -0.42355336	     -0.30948522
      3.06666667	      0.37067333	      1.90753045	    122.89696549	      0.19530736	      0.72344802	      0.93682968	     -2.63402722	     -0.81731889	    -23.45086957	     11.94466422	      0.20847372	     29.77121536	      1.17806354	      0.00000000	     -1.61393900	      1.06170159	     31.15332445	      3.96211768	      0.06915200	     26.02463609	     -9.56603392	      0.00000000	     -0.22733694	      0.22809210	      0.58123589	     -0.42218743	      0.30336250	      0.61756314	     -0.37349186	      0.55458314	      0.61756314	     -0.25982339	      0.55458314	      0.50858141	     -0.21110508	      0.46512542	      0.47225416	     -0.12990033	      0.35331467	      0.43592692	     -1.62384502	      2.58022349	      3.23265967	      0.00000000	      0.00000000	     13.31141368	     -1.90298266	     -8.91561693	      1.80348223	    -17.82343786	     84.26759602	     18.92939722	      6.16671584	      2.35649954	      1.74775316	      7.29828036	     -9.63497185	     55.94797481	     26.26960467	     86.40895057	      0.49107357	      0.38115082
      3.08333333	      0.53383470	      2.20496578	    123.05890137	      0.19528876	      0.72358597	      0.93572865	     -3.02903847	     -0.38920592	    -23.79386355	     11.61389124	      0.20270064	     29.60685486	      1.38156957	      0.00000000	     -1.88990936	      0.68196173	     31.78464999	      3.92362043	      0.06848010	     26.00876835	    -10.25892456	      0.00000000	     -0.23897870	      0.26652407	      0.47415373	     -0.44380735	      0.35447702	      0.50378834	     -0.39261811	      0.64802663	      0.50378834	     -0.27312876	      0.64802663	      0.41488451	     -0.22191563	      0.54349589	      0.38524991	     -0.13655243	      0.41284579	      0.35561530	     -1.70700099	      3.01497363	      2.63710080	      0.00000000	      0.00000000	     13.24749949	     -2.62441553	     -9.37304286	      2.41105657	    -18.03252972	     88.11362255	     19.02118709	      4.55896740	      2.69781325	      0.85485219	      8.76037512	     -9.49367026	     62.92891245	     24.64164654	     82.50540494	      0.51802407	     -1.04205349
